<svg xmlns="http://www.w3.org/2000/svg" xmlns:xlink="http://www.w3.org/1999/xlink" width="479pt" height="1910pt" viewBox="0 0 479 1910"><g id="graph0" class="graph" transform="scale(1 1) rotate(0) translate(4 1906)"><title>G</title><polygon fill="#fff" stroke="none" points="-4 4 -4 -1906 475 -1906 475 4 -4 4"/><g id="node1" class="node"><title>Rithala</title><polygon fill="none" stroke="#000" points="147.5 -1902 91.5 -1902 91.5 -1866 147.5 -1866 147.5 -1902"/><text x="119.5" y="-1880.3" font-family="Times,serif" font-size="14" text-anchor="middle">Rithala</text></g><g id="node2" class="node"><title>Netaji Subhash Place</title><polygon fill="none" stroke="#000" points="185.5 -1815 53.5 -1815 53.5 -1779 185.5 -1779 185.5 -1815"/><text x="119.5" y="-1793.3" font-family="Times,serif" font-size="14" text-anchor="middle">Netaji Subhash Place</text></g><g id="edge1" class="edge"><title>Rithala--Netaji Subhash Place</title><path fill="none" stroke="red" stroke-width="5" d="M119.5,-1865.8C119.5,-1851.05 119.5,-1829.92 119.5,-1815.18"/><text x="128.5" y="-1836.8" font-family="Times,serif" font-size="14" text-anchor="middle">5.2</text></g><g id="node3" class="node"><title>Keshav Puram</title><polygon fill="none" stroke="#000" points="168 -1728 71 -1728 71 -1692 168 -1692 168 -1728"/><text x="119.5" y="-1706.3" font-family="Times,serif" font-size="14" text-anchor="middle">Keshav Puram</text></g><g id="edge2" class="edge"><title>Netaji Subhash Place--Keshav Puram</title><path fill="none" stroke="red" stroke-width="5" d="M119.5,-1778.8C119.5,-1764.05 119.5,-1742.92 119.5,-1728.18"/><text x="128.5" y="-1749.8" font-family="Times,serif" font-size="14" text-anchor="middle">1.2</text></g><g id="node4" class="node"><title>Kanhaiya Nagar</title><polygon fill="none" stroke="#000" points="172 -1641 67 -1641 67 -1605 172 -1605 172 -1641"/><text x="119.5" y="-1619.3" font-family="Times,serif" font-size="14" text-anchor="middle">Kanhaiya Nagar</text></g><g id="edge3" class="edge"><title>Keshav Puram--Kanhaiya Nagar</title><path fill="none" stroke="red" stroke-width="5" d="M119.5,-1691.8C119.5,-1677.05 119.5,-1655.92 119.5,-1641.18"/><text x="128.5" y="-1662.8" font-family="Times,serif" font-size="14" text-anchor="middle">0.8</text></g><g id="node5" class="node"><title>Inderlok</title><polygon fill="none" stroke="#000" points="162.5 -1554 100.5 -1554 100.5 -1518 162.5 -1518 162.5 -1554"/><text x="131.5" y="-1532.3" font-family="Times,serif" font-size="14" text-anchor="middle">Inderlok</text></g><g id="edge4" class="edge"><title>Kanhaiya Nagar--Inderlok</title><path fill="none" stroke="red" stroke-width="5" d="M121.928,-1604.8C124.01,-1590.05 126.994,-1568.92 129.075,-1554.18"/><text x="135.5" y="-1575.8" font-family="Times,serif" font-size="14" text-anchor="middle">1.2</text></g><g id="node6" class="node"><title>Shastri Nagar</title><polygon fill="none" stroke="#000" points="177 -1467 86 -1467 86 -1431 177 -1431 177 -1467"/><text x="131.5" y="-1445.3" font-family="Times,serif" font-size="14" text-anchor="middle">Shastri Nagar</text></g><g id="edge5" class="edge"><title>Inderlok--Shastri Nagar</title><path fill="none" stroke="red" stroke-width="5" d="M131.5,-1517.8C131.5,-1503.05 131.5,-1481.92 131.5,-1467.18"/><text x="140.5" y="-1488.8" font-family="Times,serif" font-size="14" text-anchor="middle">1.2</text></g><g id="node7" class="node"><title>Pratap Nagar</title><polygon fill="none" stroke="#000" points="175.5 -1380 87.5 -1380 87.5 -1344 175.5 -1344 175.5 -1380"/><text x="131.5" y="-1358.3" font-family="Times,serif" font-size="14" text-anchor="middle">Pratap Nagar</text></g><g id="edge6" class="edge"><title>Shastri Nagar--Pratap Nagar</title><path fill="none" stroke="red" stroke-width="5" d="M131.5,-1430.8C131.5,-1416.05 131.5,-1394.92 131.5,-1380.18"/><text x="140.5" y="-1401.8" font-family="Times,serif" font-size="14" text-anchor="middle">1.7</text></g><g id="node8" class="node"><title>Pulbangash</title><polygon fill="none" stroke="#000" points="174 -1272 95 -1272 95 -1236 174 -1236 174 -1272"/><text x="134.5" y="-1250.3" font-family="Times,serif" font-size="14" text-anchor="middle">Pulbangash</text></g><g id="edge7" class="edge"><title>Pratap Nagar--Pulbangash</title><path fill="none" stroke="red" stroke-width="5" d="M131.982,-1343.97C132.539,-1324.31 133.449,-1292.13 134.009,-1272.34"/><text x="142.5" y="-1304.3" font-family="Times,serif" font-size="14" text-anchor="middle">0.8</text></g><g id="node9" class="node"><title>Tis Hazari</title><polygon fill="none" stroke="#000" points="173.5 -1164 99.5 -1164 99.5 -1128 173.5 -1128 173.5 -1164"/><text x="136.5" y="-1142.3" font-family="Times,serif" font-size="14" text-anchor="middle">Tis Hazari</text></g><g id="edge8" class="edge"><title>Pulbangash--Tis Hazari</title><path fill="none" stroke="red" stroke-width="5" d="M134.821,-1235.97C135.192,-1216.31 135.799,-1184.13 136.173,-1164.34"/><text x="145.5" y="-1196.3" font-family="Times,serif" font-size="14" text-anchor="middle">0.9</text></g><g id="node10" class="node"><title>Kashmere Gate</title><polygon fill="none" stroke="#000" points="187 -1056 86 -1056 86 -1020 187 -1020 187 -1056"/><text x="136.5" y="-1034.3" font-family="Times,serif" font-size="14" text-anchor="middle">Kashmere Gate</text></g><g id="edge9" class="edge"><title>Tis Hazari--Kashmere Gate</title><path fill="none" stroke="red" stroke-width="5" d="M136.5,-1127.97C136.5,-1108.31 136.5,-1076.13 136.5,-1056.34"/><text x="145.5" y="-1088.3" font-family="Times,serif" font-size="14" text-anchor="middle">1.1</text></g><g id="node11" class="node"><title>Shastri Park</title><polygon fill="none" stroke="#000" points="83 -948 0 -948 0 -912 83 -912 83 -948"/><text x="41.5" y="-926.3" font-family="Times,serif" font-size="14" text-anchor="middle">Shastri Park</text></g><g id="edge10" class="edge"><title>Kashmere Gate--Shastri Park</title><path fill="none" stroke="red" stroke-width="5" d="M121.237,-1019.97C103.613,-1000.31 74.781,-968.135 57.0411,-948.341"/><text x="112.5" y="-980.3" font-family="Times,serif" font-size="14" text-anchor="middle">2.2</text></g><g id="node33" class="node"><title>Lal Qila</title><polygon fill="none" stroke="#000" points="167.5 -948 105.5 -948 105.5 -912 167.5 -912 167.5 -948"/><text x="136.5" y="-926.3" font-family="Times,serif" font-size="14" text-anchor="middle">Lal Qila</text></g><g id="edge32" class="edge"><title>Kashmere Gate--Lal Qila</title><path fill="none" stroke="violet" stroke-width="5" d="M136.5,-1019.97C136.5,-1000.31 136.5,-968.135 136.5,-948.341"/><text x="145.5" y="-980.3" font-family="Times,serif" font-size="14" text-anchor="middle">1.5</text></g><g id="node45" class="node"><title>Chandni Chowk</title><polygon fill="none" stroke="#000" points="294 -948 189 -948 189 -912 294 -912 294 -948"/><text x="241.5" y="-926.3" font-family="Times,serif" font-size="14" text-anchor="middle">Chandni Chowk</text></g><g id="edge45" class="edge"><title>Kashmere Gate--Chandni Chowk</title><path fill="none" stroke="#ff0" stroke-width="5" d="M153.37,-1019.97C172.848,-1000.31 204.716,-968.135 224.323,-948.341"/><text x="214.5" y="-980.3" font-family="Times,serif" font-size="14" text-anchor="middle">1.1</text></g><g id="node12" class="node"><title>Seelampur</title><polygon fill="none" stroke="#000" points="75 -861 0 -861 0 -825 75 -825 75 -861"/><text x="37.5" y="-839.3" font-family="Times,serif" font-size="14" text-anchor="middle">Seelampur</text></g><g id="edge11" class="edge"><title>Shastri Park--Seelampur</title><path fill="none" stroke="red" stroke-width="5" d="M40.6905,-911.799C39.9966,-897.052 39.0019,-875.915 38.3083,-861.175"/><text x="49.5" y="-882.8" font-family="Times,serif" font-size="14" text-anchor="middle">1.6</text></g><g id="node13" class="node"><title>Welcome</title><polygon fill="none" stroke="#000" points="72.5 -774 2.5 -774 2.5 -738 72.5 -738 72.5 -774"/><text x="37.5" y="-752.3" font-family="Times,serif" font-size="14" text-anchor="middle">Welcome</text></g><g id="edge12" class="edge"><title>Seelampur--Welcome</title><path fill="none" stroke="red" stroke-width="5" d="M37.5,-824.799C37.5,-810.052 37.5,-788.915 37.5,-774.175"/><text x="46.5" y="-795.8" font-family="Times,serif" font-size="14" text-anchor="middle">1.1</text></g><g id="node14" class="node"><title>Rajouri Garden</title><polygon fill="none" stroke="#000" points="290 -1728 189 -1728 189 -1692 290 -1692 290 -1728"/><text x="239.5" y="-1706.3" font-family="Times,serif" font-size="14" text-anchor="middle">Rajouri Garden</text></g><g id="node15" class="node"><title>Ramesh Nagar</title><polygon fill="none" stroke="#000" points="288.5 -1641 190.5 -1641 190.5 -1605 288.5 -1605 288.5 -1641"/><text x="239.5" y="-1619.3" font-family="Times,serif" font-size="14" text-anchor="middle">Ramesh Nagar</text></g><g id="edge13" class="edge"><title>Rajouri Garden--Ramesh Nagar</title><path fill="none" stroke="#00f" stroke-width="5" d="M239.5,-1691.8C239.5,-1677.05 239.5,-1655.92 239.5,-1641.18"/><text x="243" y="-1662.8" font-family="Times,serif" font-size="14" text-anchor="middle">1</text></g><g id="node16" class="node"><title>Moti Nagar</title><polygon fill="none" stroke="#000" points="263.5 -1554 183.5 -1554 183.5 -1518 263.5 -1518 263.5 -1554"/><text x="223.5" y="-1532.3" font-family="Times,serif" font-size="14" text-anchor="middle">Moti Nagar</text></g><g id="edge14" class="edge"><title>Ramesh Nagar--Moti Nagar</title><path fill="none" stroke="#00f" stroke-width="5" d="M236.262,-1604.8C233.486,-1590.05 229.508,-1568.92 226.733,-1554.18"/><text x="241.5" y="-1575.8" font-family="Times,serif" font-size="14" text-anchor="middle">1.2</text></g><g id="node17" class="node"><title>Kirti Nagar</title><polygon fill="none" stroke="#000" points="366 -1467 287 -1467 287 -1431 366 -1431 366 -1467"/><text x="326.5" y="-1445.3" font-family="Times,serif" font-size="14" text-anchor="middle">Kirti Nagar</text></g><g id="edge15" class="edge"><title>Moti Nagar--Kirti Nagar</title><path fill="none" stroke="#00f" stroke-width="5" d="M244.344,-1517.8C262.214,-1503.05 287.826,-1481.92 305.687,-1467.18"/><text x="285" y="-1488.8" font-family="Times,serif" font-size="14" text-anchor="middle">1</text></g><g id="node18" class="node"><title>Shadipur</title><polygon fill="none" stroke="#000" points="359 -1326 294 -1326 294 -1290 359 -1290 359 -1326"/><text x="326.5" y="-1304.3" font-family="Times,serif" font-size="14" text-anchor="middle">Shadipur</text></g><g id="edge16" class="edge"><title>Kirti Nagar--Shadipur</title><path fill="none" stroke="#00f" stroke-width="5" d="M326.5,-1430.96C326.5,-1404.28 326.5,-1352.95 326.5,-1326.18"/><text x="335.5" y="-1401.8" font-family="Times,serif" font-size="14" text-anchor="middle">0.7</text></g><g id="node19" class="node"><title>Patel Nagar</title><polygon fill="none" stroke="#000" points="366.5 -1218 286.5 -1218 286.5 -1182 366.5 -1182 366.5 -1218"/><text x="326.5" y="-1196.3" font-family="Times,serif" font-size="14" text-anchor="middle">Patel Nagar</text></g><g id="edge17" class="edge"><title>Shadipur--Patel Nagar</title><path fill="none" stroke="#00f" stroke-width="5" d="M326.5,-1289.97C326.5,-1270.31 326.5,-1238.13 326.5,-1218.34"/><text x="335.5" y="-1250.3" font-family="Times,serif" font-size="14" text-anchor="middle">1.3</text></g><g id="node20" class="node"><title>Rajender Place</title><polygon fill="none" stroke="#000" points="375.5 -1110 277.5 -1110 277.5 -1074 375.5 -1074 375.5 -1110"/><text x="326.5" y="-1088.3" font-family="Times,serif" font-size="14" text-anchor="middle">Rajender Place</text></g><g id="edge18" class="edge"><title>Patel Nagar--Rajender Place</title><path fill="none" stroke="#00f" stroke-width="5" d="M326.5,-1181.97C326.5,-1162.31 326.5,-1130.13 326.5,-1110.34"/><text x="335.5" y="-1142.3" font-family="Times,serif" font-size="14" text-anchor="middle">0.9</text></g><g id="node21" class="node"><title>Karol Bagh</title><polygon fill="none" stroke="#000" points="366.5 -1002 286.5 -1002 286.5 -966 366.5 -966 366.5 -1002"/><text x="326.5" y="-980.3" font-family="Times,serif" font-size="14" text-anchor="middle">Karol Bagh</text></g><g id="edge19" class="edge"><title>Rajender Place--Karol Bagh</title><path fill="none" stroke="#00f" stroke-width="5" d="M326.5,-1073.97C326.5,-1054.31 326.5,-1022.13 326.5,-1002.34"/><text x="330" y="-1034.3" font-family="Times,serif" font-size="14" text-anchor="middle">1</text></g><g id="node22" class="node"><title>Rajiv Chowk</title><polygon fill="none" stroke="#000" points="342 -687 253 -687 253 -651 342 -651 342 -687"/><text x="297.5" y="-665.3" font-family="Times,serif" font-size="14" text-anchor="middle">Rajiv Chowk</text></g><g id="edge20" class="edge"><title>Karol Bagh--Rajiv Chowk</title><path fill="none" stroke="#00f" stroke-width="5" d="M326.5,-965.748C326.5,-946.622 326.5,-914.857 326.5,-887.5 326.5,-887.5 326.5,-887.5 326.5,-755 326.5,-730.364 315.453,-703.76 306.996,-687.001"/><text x="335.5" y="-839.3" font-family="Times,serif" font-size="14" text-anchor="middle">3.4</text></g><g id="node23" class="node"><title>Barakhamba Road</title><polygon fill="none" stroke="#000" points="290.5 -579 172.5 -579 172.5 -543 290.5 -543 290.5 -579"/><text x="231.5" y="-557.3" font-family="Times,serif" font-size="14" text-anchor="middle">Barakhamba Road</text></g><g id="edge21" class="edge"><title>Rajiv Chowk--Barakhamba Road</title><path fill="none" stroke="#00f" stroke-width="5" d="M286.896,-650.969C274.653,-631.306 254.622,-599.135 242.297,-579.341"/><text x="283.5" y="-611.3" font-family="Times,serif" font-size="14" text-anchor="middle">0.7</text></g><g id="node48" class="node"><title>Patel Chowk</title><polygon fill="none" stroke="#000" points="361.5 -525 275.5 -525 275.5 -489 361.5 -489 361.5 -525"/><text x="318.5" y="-503.3" font-family="Times,serif" font-size="14" text-anchor="middle">Patel Chowk</text></g><g id="edge49" class="edge"><title>Rajiv Chowk--Patel Chowk</title><path fill="none" stroke="#ff0" stroke-width="5" d="M299.747,-650.877C303.768,-620.243 312.15,-556.379 316.205,-525.485"/><text x="316.5" y="-611.3" font-family="Times,serif" font-size="14" text-anchor="middle">1.3</text></g><g id="node24" class="node"><title>Mandi House</title><polygon fill="none" stroke="#000" points="251 -471 160 -471 160 -435 251 -435 251 -471"/><text x="205.5" y="-449.3" font-family="Times,serif" font-size="14" text-anchor="middle">Mandi House</text></g><g id="edge22" class="edge"><title>Barakhamba Road--Mandi House</title><path fill="none" stroke="#00f" stroke-width="5" d="M227.323,-542.969C222.499,-523.306 214.608,-491.135 209.753,-471.341"/><text x="226" y="-503.3" font-family="Times,serif" font-size="14" text-anchor="middle">1</text></g><g id="node25" class="node"><title>Pragati Maiden</title><polygon fill="none" stroke="#000" points="214 -384 113 -384 113 -348 214 -348 214 -384"/><text x="163.5" y="-362.3" font-family="Times,serif" font-size="14" text-anchor="middle">Pragati Maiden</text></g><g id="edge23" class="edge"><title>Mandi House--Pragati Maiden</title><path fill="none" stroke="#00f" stroke-width="5" d="M197.001,-434.799C189.714,-420.052 179.27,-398.915 171.987,-384.175"/><text x="196.5" y="-405.8" font-family="Times,serif" font-size="14" text-anchor="middle">0.8</text></g><g id="node37" class="node"><title>Janptah</title><polygon fill="none" stroke="#000" points="290.5 -384 232.5 -384 232.5 -348 290.5 -348 290.5 -384"/><text x="261.5" y="-362.3" font-family="Times,serif" font-size="14" text-anchor="middle">Janptah</text></g><g id="edge37" class="edge"><title>Mandi House--Janptah</title><path fill="none" stroke="violet" stroke-width="5" d="M216.832,-434.799C226.548,-420.052 240.474,-398.915 250.184,-384.175"/><text x="246.5" y="-405.8" font-family="Times,serif" font-size="14" text-anchor="middle">1.4</text></g><g id="node26" class="node"><title>Inderprastha</title><polygon fill="none" stroke="#000" points="205.5 -297 121.5 -297 121.5 -261 205.5 -261 205.5 -297"/><text x="163.5" y="-275.3" font-family="Times,serif" font-size="14" text-anchor="middle">Inderprastha</text></g><g id="edge24" class="edge"><title>Pragati Maiden--Inderprastha</title><path fill="none" stroke="#00f" stroke-width="5" d="M163.5,-347.799C163.5,-333.052 163.5,-311.915 163.5,-297.175"/><text x="172.5" y="-318.8" font-family="Times,serif" font-size="14" text-anchor="middle">0.8</text></g><g id="node27" class="node"><title>Yamuna Bank</title><polygon fill="none" stroke="#000" points="211 -210 116 -210 116 -174 211 -174 211 -210"/><text x="163.5" y="-188.3" font-family="Times,serif" font-size="14" text-anchor="middle">Yamuna Bank</text></g><g id="edge25" class="edge"><title>Inderprastha--Yamuna Bank</title><path fill="none" stroke="#00f" stroke-width="5" d="M163.5,-260.799C163.5,-246.052 163.5,-224.915 163.5,-210.175"/><text x="172.5" y="-231.8" font-family="Times,serif" font-size="14" text-anchor="middle">1.8</text></g><g id="node28" class="node"><title>Madipur</title><polygon fill="none" stroke="#000" points="387.5 -1902 323.5 -1902 323.5 -1866 387.5 -1866 387.5 -1902"/><text x="355.5" y="-1880.3" font-family="Times,serif" font-size="14" text-anchor="middle">Madipur</text></g><g id="node29" class="node"><title>Shivaji Park</title><polygon fill="none" stroke="#000" points="397 -1815 314 -1815 314 -1779 397 -1779 397 -1815"/><text x="355.5" y="-1793.3" font-family="Times,serif" font-size="14" text-anchor="middle">Shivaji Park</text></g><g id="edge26" class="edge"><title>Madipur--Shivaji Park</title><path fill="none" stroke="green" stroke-width="5" d="M355.5,-1865.8C355.5,-1851.05 355.5,-1829.92 355.5,-1815.18"/><text x="364.5" y="-1836.8" font-family="Times,serif" font-size="14" text-anchor="middle">1.1</text></g><g id="node30" class="node"><title>Punjabi Bagh</title><polygon fill="none" stroke="#000" points="400.5 -1728 310.5 -1728 310.5 -1692 400.5 -1692 400.5 -1728"/><text x="355.5" y="-1706.3" font-family="Times,serif" font-size="14" text-anchor="middle">Punjabi Bagh</text></g><g id="edge27" class="edge"><title>Shivaji Park--Punjabi Bagh</title><path fill="none" stroke="green" stroke-width="5" d="M355.5,-1778.8C355.5,-1764.05 355.5,-1742.92 355.5,-1728.18"/><text x="364.5" y="-1749.8" font-family="Times,serif" font-size="14" text-anchor="middle">1.6</text></g><g id="node31" class="node"><title>Ashok Park</title><polygon fill="none" stroke="#000" points="395.5 -1641 315.5 -1641 315.5 -1605 395.5 -1605 395.5 -1641"/><text x="355.5" y="-1619.3" font-family="Times,serif" font-size="14" text-anchor="middle">Ashok Park</text></g><g id="edge28" class="edge"><title>Punjabi Bagh--Ashok Park</title><path fill="none" stroke="green" stroke-width="5" d="M355.5,-1691.8C355.5,-1677.05 355.5,-1655.92 355.5,-1641.18"/><text x="364.5" y="-1662.8" font-family="Times,serif" font-size="14" text-anchor="middle">0.9</text></g><g id="edge29" class="edge"><title>Ashok Park--Inderlok</title><path fill="none" stroke="green" stroke-width="5" d="M325.825,-1604.96C306.123,-1594.24 279.397,-1580.82 254.5,-1572 220.148,-1559.83 209.329,-1564.73 174.5,-1554 170.664,-1552.82 166.686,-1551.45 162.769,-1550.01"/><text x="298.5" y="-1575.8" font-family="Times,serif" font-size="14" text-anchor="middle">1.4</text></g><g id="node32" class="node"><title>Sat Guru Ram Singh Marg</title><polygon fill="none" stroke="#000" points="445.5 -1554 281.5 -1554 281.5 -1518 445.5 -1518 445.5 -1554"/><text x="363.5" y="-1532.3" font-family="Times,serif" font-size="14" text-anchor="middle">Sat Guru Ram Singh Marg</text></g><g id="edge30" class="edge"><title>Ashok Park--Sat Guru Ram Singh Marg</title><path fill="none" stroke="green" stroke-width="5" d="M357.119,-1604.8C358.507,-1590.05 360.496,-1568.92 361.883,-1554.18"/><text x="369.5" y="-1575.8" font-family="Times,serif" font-size="14" text-anchor="middle">1.1</text></g><g id="edge31" class="edge"><title>Sat Guru Ram Singh Marg--Kirti Nagar</title><path fill="none" stroke="green" stroke-width="5" d="M356.012,-1517.8C349.593,-1503.05 340.392,-1481.92 333.976,-1467.18"/><text x="351" y="-1488.8" font-family="Times,serif" font-size="14" text-anchor="middle">1</text></g><g id="node34" class="node"><title>Jama Masjid</title><polygon fill="none" stroke="#000" points="180 -861 93 -861 93 -825 180 -825 180 -861"/><text x="136.5" y="-839.3" font-family="Times,serif" font-size="14" text-anchor="middle">Jama Masjid</text></g><g id="edge33" class="edge"><title>Lal Qila--Jama Masjid</title><path fill="none" stroke="violet" stroke-width="5" d="M136.5,-911.799C136.5,-897.052 136.5,-875.915 136.5,-861.175"/><text x="145.5" y="-882.8" font-family="Times,serif" font-size="14" text-anchor="middle">0.8</text></g><g id="node35" class="node"><title>Delhi Gate</title><polygon fill="none" stroke="#000" points="174.5 -774 98.5 -774 98.5 -738 174.5 -738 174.5 -774"/><text x="136.5" y="-752.3" font-family="Times,serif" font-size="14" text-anchor="middle">Delhi Gate</text></g><g id="edge34" class="edge"><title>Jama Masjid--Delhi Gate</title><path fill="none" stroke="violet" stroke-width="5" d="M136.5,-824.799C136.5,-810.052 136.5,-788.915 136.5,-774.175"/><text x="145.5" y="-795.8" font-family="Times,serif" font-size="14" text-anchor="middle">1.4</text></g><g id="node36" class="node"><title>ITO</title><polygon fill="none" stroke="#000" points="163.5 -633 109.5 -633 109.5 -597 163.5 -597 163.5 -633"/><text x="136.5" y="-611.3" font-family="Times,serif" font-size="14" text-anchor="middle">ITO</text></g><g id="edge35" class="edge"><title>Delhi Gate--ITO</title><path fill="none" stroke="violet" stroke-width="5" d="M136.5,-737.956C136.5,-711.278 136.5,-659.947 136.5,-633.184"/><text x="145.5" y="-708.8" font-family="Times,serif" font-size="14" text-anchor="middle">1.3</text></g><g id="edge36" class="edge"><title>ITO--Mandi House</title><path fill="none" stroke="violet" stroke-width="5" d="M136.468,-596.828C136.952,-582.108 138.897,-560.562 145.5,-543 155.862,-515.441 176.288,-487.998 190.409,-471.026"/><text x="154.5" y="-557.3" font-family="Times,serif" font-size="14" text-anchor="middle">0.8</text></g><g id="node38" class="node"><title>Central Secretariat</title><polygon fill="none" stroke="#000" points="359.5 -297 241.5 -297 241.5 -261 359.5 -261 359.5 -297"/><text x="300.5" y="-275.3" font-family="Times,serif" font-size="14" text-anchor="middle">Central Secretariat</text></g><g id="edge38" class="edge"><title>Janptah--Central Secretariat</title><path fill="none" stroke="violet" stroke-width="5" d="M269.392,-347.799C276.159,-333.052 285.857,-311.915 292.62,-297.175"/><text x="292.5" y="-318.8" font-family="Times,serif" font-size="14" text-anchor="middle">1.3</text></g><g id="node39" class="node"><title>Khan Market</title><polygon fill="none" stroke="#000" points="452 -210 363 -210 363 -174 452 -174 452 -210"/><text x="407.5" y="-188.3" font-family="Times,serif" font-size="14" text-anchor="middle">Khan Market</text></g><g id="edge39" class="edge"><title>Central Secretariat--Khan Market</title><path fill="none" stroke="violet" stroke-width="5" d="M322.153,-260.799C340.717,-246.052 367.324,-224.915 385.879,-210.175"/><text x="369.5" y="-231.8" font-family="Times,serif" font-size="14" text-anchor="middle">2.1</text></g><g id="node49" class="node"><title>Udyog Bhawan</title><polygon fill="none" stroke="#000" points="335 -210 234 -210 234 -174 335 -174 335 -210"/><text x="284.5" y="-188.3" font-family="Times,serif" font-size="14" text-anchor="middle">Udyog Bhawan</text></g><g id="edge51" class="edge"><title>Central Secretariat--Udyog Bhawan</title><path fill="none" stroke="#ff0" stroke-width="5" d="M297.262,-260.799C294.486,-246.052 290.508,-224.915 287.733,-210.175"/><text x="302.5" y="-231.8" font-family="Times,serif" font-size="14" text-anchor="middle">0.3</text></g><g id="node40" class="node"><title>JL Nehru Stadium</title><polygon fill="none" stroke="#000" points="471 -123 354 -123 354 -87 471 -87 471 -123"/><text x="412.5" y="-101.3" font-family="Times,serif" font-size="14" text-anchor="middle">JL Nehru Stadium</text></g><g id="edge40" class="edge"><title>Khan Market--JL Nehru Stadium</title><path fill="none" stroke="violet" stroke-width="5" d="M408.512,-173.799C409.379,-159.052 410.623,-137.915 411.49,-123.175"/><text x="419.5" y="-144.8" font-family="Times,serif" font-size="14" text-anchor="middle">1.4</text></g><g id="node41" class="node"><title>Jangpura</title><polygon fill="none" stroke="#000" points="445 -36 380 -36 380 0 445 0 445 -36"/><text x="412.5" y="-14.3" font-family="Times,serif" font-size="14" text-anchor="middle">Jangpura</text></g><g id="edge41" class="edge"><title>JL Nehru Stadium--Jangpura</title><path fill="none" stroke="violet" stroke-width="5" d="M412.5,-86.799C412.5,-72.0519 412.5,-50.9152 412.5,-36.1754"/><text x="421.5" y="-57.8" font-family="Times,serif" font-size="14" text-anchor="middle">0.9</text></g><g id="node42" class="node"><title>Vishwavidalaya</title><polygon fill="none" stroke="#000" points="297.5 -1380 193.5 -1380 193.5 -1344 297.5 -1344 297.5 -1380"/><text x="245.5" y="-1358.3" font-family="Times,serif" font-size="14" text-anchor="middle">Vishwavidalaya</text></g><g id="node43" class="node"><title>Vidhan Sabha</title><polygon fill="none" stroke="#000" points="289 -1272 196 -1272 196 -1236 289 -1236 289 -1272"/><text x="242.5" y="-1250.3" font-family="Times,serif" font-size="14" text-anchor="middle">Vidhan Sabha</text></g><g id="edge42" class="edge"><title>Vishwavidalaya--Vidhan Sabha</title><path fill="none" stroke="#ff0" stroke-width="5" d="M245.018,-1343.97C244.461,-1324.31 243.551,-1292.13 242.991,-1272.34"/><text x="248" y="-1304.3" font-family="Times,serif" font-size="14" text-anchor="middle">1</text></g><g id="node44" class="node"><title>Civil Lines</title><polygon fill="none" stroke="#000" points="272 -1164 195 -1164 195 -1128 272 -1128 272 -1164"/><text x="233.5" y="-1142.3" font-family="Times,serif" font-size="14" text-anchor="middle">Civil Lines</text></g><g id="edge43" class="edge"><title>Vidhan Sabha--Civil Lines</title><path fill="none" stroke="#ff0" stroke-width="5" d="M241.054,-1235.97C239.384,-1216.31 236.653,-1184.13 234.972,-1164.34"/><text x="248.5" y="-1196.3" font-family="Times,serif" font-size="14" text-anchor="middle">1.3</text></g><g id="edge44" class="edge"><title>Civil Lines--Kashmere Gate</title><path fill="none" stroke="#ff0" stroke-width="5" d="M217.915,-1127.97C199.921,-1108.31 170.482,-1076.13 152.368,-1056.34"/><text x="208.5" y="-1088.3" font-family="Times,serif" font-size="14" text-anchor="middle">1.1</text></g><g id="node46" class="node"><title>Chawri Bazar</title><polygon fill="none" stroke="#000" points="290.5 -861 198.5 -861 198.5 -825 290.5 -825 290.5 -861"/><text x="244.5" y="-839.3" font-family="Times,serif" font-size="14" text-anchor="middle">Chawri Bazar</text></g><g id="edge46" class="edge"><title>Chandni Chowk--Chawri Bazar</title><path fill="none" stroke="#ff0" stroke-width="5" d="M242.107,-911.799C242.628,-897.052 243.374,-875.915 243.894,-861.175"/><text x="247" y="-882.8" font-family="Times,serif" font-size="14" text-anchor="middle">1</text></g><g id="node47" class="node"><title>New Delhi</title><polygon fill="none" stroke="#000" points="294.5 -774 218.5 -774 218.5 -738 294.5 -738 294.5 -774"/><text x="256.5" y="-752.3" font-family="Times,serif" font-size="14" text-anchor="middle">New Delhi</text></g><g id="edge47" class="edge"><title>Chawri Bazar--New Delhi</title><path fill="none" stroke="#ff0" stroke-width="5" d="M246.928,-824.799C249.01,-810.052 251.994,-788.915 254.075,-774.175"/><text x="260.5" y="-795.8" font-family="Times,serif" font-size="14" text-anchor="middle">0.8</text></g><g id="edge48" class="edge"><title>New Delhi--Rajiv Chowk</title><path fill="none" stroke="#ff0" stroke-width="5" d="M264.797,-737.799C271.91,-723.052 282.106,-701.915 289.215,-687.175"/><text x="288.5" y="-708.8" font-family="Times,serif" font-size="14" text-anchor="middle">1.1</text></g><g id="edge50" class="edge"><title>Patel Chowk--Central Secretariat</title><path fill="none" stroke="#ff0" stroke-width="5" d="M317.478,-488.859C315.431,-455.4 310.505,-379.055 304.5,-315 303.952,-309.154 303.252,-302.771 302.592,-297.075"/><text x="322.5" y="-405.8" font-family="Times,serif" font-size="14" text-anchor="middle">0.9</text></g><g id="node50" class="node"><title>Lok Kalyan Marg</title><polygon fill="none" stroke="#000" points="336 -123 221 -123 221 -87 336 -87 336 -123"/><text x="278.5" y="-101.3" font-family="Times,serif" font-size="14" text-anchor="middle">Lok Kalyan Marg</text></g><g id="edge52" class="edge"><title>Udyog Bhawan--Lok Kalyan Marg</title><path fill="none" stroke="#ff0" stroke-width="5" d="M283.286,-173.799C282.245,-159.052 280.753,-137.915 279.712,-123.175"/><text x="291.5" y="-144.8" font-family="Times,serif" font-size="14" text-anchor="middle">1.6</text></g><g id="node51" class="node"><title>Jor Bagh</title><polygon fill="none" stroke="#000" points="311 -36 246 -36 246 0 311 0 311 -36"/><text x="278.5" y="-14.3" font-family="Times,serif" font-size="14" text-anchor="middle">Jor Bagh</text></g><g id="edge53" class="edge"><title>Lok Kalyan Marg--Jor Bagh</title><path fill="none" stroke="#ff0" stroke-width="5" d="M278.5,-86.799C278.5,-72.0519 278.5,-50.9152 278.5,-36.1754"/><text x="287.5" y="-57.8" font-family="Times,serif" font-size="14" text-anchor="middle">1.2</text></g></g></svg>