<svg xmlns="http://www.w3.org/2000/svg" xmlns:xlink="http://www.w3.org/1999/xlink" width="1036pt" height="1100" viewBox="0 0 1036 825"><g id="graph0" class="graph" transform="scale(1 1) rotate(0) translate(4 798)"><title>G</title><polygon fill="#fff" stroke="none" points="-4 27 -4 -798 1032 -798 1032 27 -4 27"/><text x="514" y="15.2" font-family="Times,serif" font-size="14" text-anchor="middle">Stadion IDs</text><g id="clust1" class="cluster"><title>cluster1</title><polygon fill="none" stroke="#000" points="720.238 -432.141 720.238 -777.141 1004.24 -777.141 1004.24 -432.141 720.238 -432.141"/><text x="862.238" y="-761.941" font-family="Times,serif" font-size="14" text-anchor="middle">0-9</text></g><g id="clust2" class="cluster"><title>cluster2</title><polygon fill="none" stroke="#000" points="360.238 -467.641 360.238 -793.641 656.238 -793.641 656.238 -467.641 360.238 -467.641"/><text x="508.238" y="-778.441" font-family="Times,serif" font-size="14" text-anchor="middle">10-19</text></g><g id="clust3" class="cluster"><title>cluster3</title><polygon fill="none" stroke="#000" points="360.238 -35.641 360.238 -393.641 676.238 -393.641 676.238 -35.641 360.238 -35.641"/><text x="518.238" y="-378.441" font-family="Times,serif" font-size="14" text-anchor="middle">20-29</text></g><g id="clust4" class="cluster"><title>cluster4</title><polygon fill="none" stroke="#000" points="720.238 .359 720.238 -357.641 1028.24 -357.641 1028.24 .359 720.238 .359"/><text x="874.238" y="-342.441" font-family="Times,serif" font-size="14" text-anchor="middle">30-39</text></g><g id="clust5" class="cluster"><title>cluster5</title><polygon fill="none" stroke="#000" points="-.262 -215.641 -.262 -567.641 312.738 -567.641 312.738 -215.641 -.262 -215.641"/><text x="156.238" y="-552.441" font-family="Times,serif" font-size="14" text-anchor="middle">40-50</text></g><g id="node1" class="node"><title>node0</title><polygon fill="none" stroke="#000" points="826.476 -440.782 826.476 -486.782 896.476 -486.782 896.476 -440.782 826.476 -440.782"/><text x="861.476" y="-471.582" font-family="Times,serif" font-size="14" text-anchor="middle">0</text><polyline fill="none" stroke="#000" points="826.476 -463.782 896.476 -463.782"/><text x="861.476" y="-448.582" font-family="Times,serif" font-size="14" text-anchor="middle">Welcome</text></g><g id="node2" class="node"><title>node1</title><polygon fill="none" stroke="#000" points="909.976 -440.782 909.976 -486.782 984.976 -486.782 984.976 -440.782 909.976 -440.782"/><text x="947.476" y="-471.582" font-family="Times,serif" font-size="14" text-anchor="middle">1</text><polyline fill="none" stroke="#000" points="909.976 -463.782 984.976 -463.782"/><text x="947.476" y="-448.582" font-family="Times,serif" font-size="14" text-anchor="middle">Seelampur</text></g><g id="node3" class="node"><title>node2</title><polygon fill="none" stroke="#000" points="727.976 -475.782 727.976 -521.782 810.976 -521.782 810.976 -475.782 727.976 -475.782"/><text x="769.476" y="-506.582" font-family="Times,serif" font-size="14" text-anchor="middle">2</text><polyline fill="none" stroke="#000" points="727.976 -498.782 810.976 -498.782"/><text x="769.476" y="-483.582" font-family="Times,serif" font-size="14" text-anchor="middle">Shastri Park</text></g><g id="node4" class="node"><title>node3</title><polygon fill="none" stroke="#000" points="853.976 -601.782 853.976 -647.782 954.976 -647.782 954.976 -601.782 853.976 -601.782"/><text x="904.476" y="-632.582" font-family="Times,serif" font-size="14" text-anchor="middle">3</text><polyline fill="none" stroke="#000" points="853.976 -624.782 954.976 -624.782"/><text x="904.476" y="-609.582" font-family="Times,serif" font-size="14" text-anchor="middle">Kashmere Gate</text></g><g id="node5" class="node"><title>node4</title><polygon fill="none" stroke="#000" points="826.476 -699.782 826.476 -745.782 900.476 -745.782 900.476 -699.782 826.476 -699.782"/><text x="863.476" y="-730.582" font-family="Times,serif" font-size="14" text-anchor="middle">4</text><polyline fill="none" stroke="#000" points="826.476 -722.782 900.476 -722.782"/><text x="863.476" y="-707.582" font-family="Times,serif" font-size="14" text-anchor="middle">Tis Hazari</text></g><g id="node6" class="node"><title>node5</title><polygon fill="none" stroke="#000" points="916.976 -664.782 916.976 -710.782 995.976 -710.782 995.976 -664.782 916.976 -664.782"/><text x="956.476" y="-695.582" font-family="Times,serif" font-size="14" text-anchor="middle">5</text><polyline fill="none" stroke="#000" points="916.976 -687.782 995.976 -687.782"/><text x="956.476" y="-672.582" font-family="Times,serif" font-size="14" text-anchor="middle">Pulbangash</text></g><g id="node7" class="node"><title>node6</title><polygon fill="none" stroke="#000" points="749.476 -636.782 749.476 -682.782 837.476 -682.782 837.476 -636.782 749.476 -636.782"/><text x="793.476" y="-667.582" font-family="Times,serif" font-size="14" text-anchor="middle">6</text><polyline fill="none" stroke="#000" points="749.476 -659.782 837.476 -659.782"/><text x="793.476" y="-644.582" font-family="Times,serif" font-size="14" text-anchor="middle">Pratap Nagar</text></g><g id="node8" class="node"><title>node7</title><polygon fill="none" stroke="#000" points="881.976 -503.782 881.976 -549.782 972.976 -549.782 972.976 -503.782 881.976 -503.782"/><text x="927.476" y="-534.582" font-family="Times,serif" font-size="14" text-anchor="middle">7</text><polyline fill="none" stroke="#000" points="881.976 -526.782 972.976 -526.782"/><text x="927.476" y="-511.582" font-family="Times,serif" font-size="14" text-anchor="middle">Shastri Nagar</text></g><g id="node9" class="node"><title>node8</title><polygon fill="none" stroke="#000" points="749.476 -699.782 749.476 -745.782 811.476 -745.782 811.476 -699.782 749.476 -699.782"/><text x="780.476" y="-730.582" font-family="Times,serif" font-size="14" text-anchor="middle">8</text><polyline fill="none" stroke="#000" points="749.476 -722.782 811.476 -722.782"/><text x="780.476" y="-707.582" font-family="Times,serif" font-size="14" text-anchor="middle">Inderlok</text></g><g id="node10" class="node"><title>node9</title><polygon fill="none" stroke="#000" points="762.976 -538.782 762.976 -584.782 867.976 -584.782 867.976 -538.782 762.976 -538.782"/><text x="815.476" y="-569.582" font-family="Times,serif" font-size="14" text-anchor="middle">9</text><polyline fill="none" stroke="#000" points="762.976 -561.782 867.976 -561.782"/><text x="815.476" y="-546.582" font-family="Times,serif" font-size="14" text-anchor="middle">Kanhaiya Nagar</text></g><g id="node11" class="node"><title>node10</title><polygon fill="none" stroke="#000" points="391.976 -652.282 391.976 -698.282 488.976 -698.282 488.976 -652.282 391.976 -652.282"/><text x="440.476" y="-683.082" font-family="Times,serif" font-size="14" text-anchor="middle">10</text><polyline fill="none" stroke="#000" points="391.976 -675.282 488.976 -675.282"/><text x="440.476" y="-660.082" font-family="Times,serif" font-size="14" text-anchor="middle">Keshav Puram</text></g><g id="node12" class="node"><title>node11</title><polygon fill="none" stroke="#000" points="504.476 -620.282 504.476 -666.282 636.476 -666.282 636.476 -620.282 504.476 -620.282"/><text x="570.476" y="-651.082" font-family="Times,serif" font-size="14" text-anchor="middle">11</text><polyline fill="none" stroke="#000" points="504.476 -643.282 636.476 -643.282"/><text x="570.476" y="-628.082" font-family="Times,serif" font-size="14" text-anchor="middle">Netaji Subhash Place</text></g><g id="node13" class="node"><title>node12</title><polygon fill="none" stroke="#000" points="416.476 -716.282 416.476 -762.282 472.476 -762.282 472.476 -716.282 416.476 -716.282"/><text x="444.476" y="-747.082" font-family="Times,serif" font-size="14" text-anchor="middle">12</text><polyline fill="none" stroke="#000" points="416.476 -739.282 472.476 -739.282"/><text x="444.476" y="-724.082" font-family="Times,serif" font-size="14" text-anchor="middle">Rithala</text></g><g id="node14" class="node"><title>node13</title><polygon fill="none" stroke="#000" points="488.476 -716.282 488.476 -762.282 552.476 -762.282 552.476 -716.282 488.476 -716.282"/><text x="520.476" y="-747.082" font-family="Times,serif" font-size="14" text-anchor="middle">13</text><polyline fill="none" stroke="#000" points="488.476 -739.282 552.476 -739.282"/><text x="520.476" y="-724.082" font-family="Times,serif" font-size="14" text-anchor="middle">Madipur</text></g><g id="node15" class="node"><title>node14</title><polygon fill="none" stroke="#000" points="559.976 -556.282 559.976 -602.282 642.976 -602.282 642.976 -556.282 559.976 -556.282"/><text x="601.476" y="-587.082" font-family="Times,serif" font-size="14" text-anchor="middle">14</text><polyline fill="none" stroke="#000" points="559.976 -579.282 642.976 -579.282"/><text x="601.476" y="-564.082" font-family="Times,serif" font-size="14" text-anchor="middle">Shivaji Park</text></g><g id="node16" class="node"><title>node15</title><polygon fill="none" stroke="#000" points="464.476 -492.282 464.476 -538.282 554.476 -538.282 554.476 -492.282 464.476 -492.282"/><text x="509.476" y="-523.082" font-family="Times,serif" font-size="14" text-anchor="middle">15</text><polyline fill="none" stroke="#000" points="464.476 -515.282 554.476 -515.282"/><text x="509.476" y="-500.082" font-family="Times,serif" font-size="14" text-anchor="middle">Punjabi Bagh</text></g><g id="node17" class="node"><title>node16</title><polygon fill="none" stroke="#000" points="568.476 -476.282 568.476 -522.282 648.476 -522.282 648.476 -476.282 568.476 -476.282"/><text x="608.476" y="-507.082" font-family="Times,serif" font-size="14" text-anchor="middle">16</text><polyline fill="none" stroke="#000" points="568.476 -499.282 648.476 -499.282"/><text x="608.476" y="-484.082" font-family="Times,serif" font-size="14" text-anchor="middle">Ashok Park</text></g><g id="node18" class="node"><title>node17</title><polygon fill="none" stroke="#000" points="376.476 -556.282 376.476 -602.282 540.476 -602.282 540.476 -556.282 376.476 -556.282"/><text x="458.476" y="-587.082" font-family="Times,serif" font-size="14" text-anchor="middle">17</text><polyline fill="none" stroke="#000" points="376.476 -579.282 540.476 -579.282"/><text x="458.476" y="-564.082" font-family="Times,serif" font-size="14" text-anchor="middle">Sat Guru Ram Singh Marg</text></g><g id="node19" class="node"><title>node18</title><polygon fill="none" stroke="#000" points="367.976 -492.282 367.976 -538.282 446.976 -538.282 446.976 -492.282 367.976 -492.282"/><text x="407.476" y="-523.082" font-family="Times,serif" font-size="14" text-anchor="middle">18</text><polyline fill="none" stroke="#000" points="367.976 -515.282 446.976 -515.282"/><text x="407.476" y="-500.082" font-family="Times,serif" font-size="14" text-anchor="middle">Kirti Nagar</text></g><g id="node20" class="node"><title>node19</title><polygon fill="none" stroke="#000" points="567.976 -684.282 567.976 -730.282 632.976 -730.282 632.976 -684.282 567.976 -684.282"/><text x="600.476" y="-715.082" font-family="Times,serif" font-size="14" text-anchor="middle">19</text><polyline fill="none" stroke="#000" points="567.976 -707.282 632.976 -707.282"/><text x="600.476" y="-692.082" font-family="Times,serif" font-size="14" text-anchor="middle">Shadipur</text></g><g id="node21" class="node"><title>node20</title><polygon fill="none" stroke="#000" points="368.476 -316.282 368.476 -362.282 448.476 -362.282 448.476 -316.282 368.476 -316.282"/><text x="408.476" y="-347.082" font-family="Times,serif" font-size="14" text-anchor="middle">20</text><polyline fill="none" stroke="#000" points="368.476 -339.282 448.476 -339.282"/><text x="408.476" y="-324.082" font-family="Times,serif" font-size="14" text-anchor="middle">Patel Nagar</text></g><g id="node22" class="node"><title>node21</title><polygon fill="none" stroke="#000" points="384.476 -252.282 384.476 -298.282 482.476 -298.282 482.476 -252.282 384.476 -252.282"/><text x="433.476" y="-283.082" font-family="Times,serif" font-size="14" text-anchor="middle">21</text><polyline fill="none" stroke="#000" points="384.476 -275.282 482.476 -275.282"/><text x="433.476" y="-260.082" font-family="Times,serif" font-size="14" text-anchor="middle">Rajender Place</text></g><g id="node23" class="node"><title>node22</title><polygon fill="none" stroke="#000" points="464.476 -316.282 464.476 -362.282 544.476 -362.282 544.476 -316.282 464.476 -316.282"/><text x="504.476" y="-347.082" font-family="Times,serif" font-size="14" text-anchor="middle">22</text><polyline fill="none" stroke="#000" points="464.476 -339.282 544.476 -339.282"/><text x="504.476" y="-324.082" font-family="Times,serif" font-size="14" text-anchor="middle">Karol Bagh</text></g><g id="node24" class="node"><title>node23</title><polygon fill="none" stroke="#000" points="479.976 -44.282 479.976 -90.282 568.976 -90.282 568.976 -44.282 479.976 -44.282"/><text x="524.476" y="-75.082" font-family="Times,serif" font-size="14" text-anchor="middle">23</text><polyline fill="none" stroke="#000" points="479.976 -67.282 568.976 -67.282"/><text x="524.476" y="-52.082" font-family="Times,serif" font-size="14" text-anchor="middle">Rajiv Chowk</text></g><g id="node25" class="node"><title>node24</title><polygon fill="none" stroke="#000" points="392.476 -156.282 392.476 -202.282 510.476 -202.282 510.476 -156.282 392.476 -156.282"/><text x="451.476" y="-187.082" font-family="Times,serif" font-size="14" text-anchor="middle">24</text><polyline fill="none" stroke="#000" points="392.476 -179.282 510.476 -179.282"/><text x="451.476" y="-164.082" font-family="Times,serif" font-size="14" text-anchor="middle">Barakhamba Road</text></g><g id="node26" class="node"><title>node25</title><polygon fill="none" stroke="#000" points="559.976 -284.282 559.976 -330.282 650.976 -330.282 650.976 -284.282 559.976 -284.282"/><text x="605.476" y="-315.082" font-family="Times,serif" font-size="14" text-anchor="middle">25</text><polyline fill="none" stroke="#000" points="559.976 -307.282 650.976 -307.282"/><text x="605.476" y="-292.082" font-family="Times,serif" font-size="14" text-anchor="middle">Mandi House</text></g><g id="node27" class="node"><title>node26</title><polygon fill="none" stroke="#000" points="495.976 -220.282 495.976 -266.282 596.976 -266.282 596.976 -220.282 495.976 -220.282"/><text x="546.476" y="-251.082" font-family="Times,serif" font-size="14" text-anchor="middle">26</text><polyline fill="none" stroke="#000" points="495.976 -243.282 596.976 -243.282"/><text x="546.476" y="-228.082" font-family="Times,serif" font-size="14" text-anchor="middle">Pragati Maiden</text></g><g id="node28" class="node"><title>node27</title><polygon fill="none" stroke="#000" points="584.476 -44.282 584.476 -90.282 668.476 -90.282 668.476 -44.282 584.476 -44.282"/><text x="626.476" y="-75.082" font-family="Times,serif" font-size="14" text-anchor="middle">27</text><polyline fill="none" stroke="#000" points="584.476 -67.282 668.476 -67.282"/><text x="626.476" y="-52.082" font-family="Times,serif" font-size="14" text-anchor="middle">Inderprastha</text></g><g id="node29" class="node"><title>node28</title><polygon fill="none" stroke="#000" points="367.976 -92.282 367.976 -138.282 462.976 -138.282 462.976 -92.282 367.976 -92.282"/><text x="415.476" y="-123.082" font-family="Times,serif" font-size="14" text-anchor="middle">28</text><polyline fill="none" stroke="#000" points="367.976 -115.282 462.976 -115.282"/><text x="415.476" y="-100.082" font-family="Times,serif" font-size="14" text-anchor="middle">Yamuna Bank</text></g><g id="node30" class="node"><title>node29</title><polygon fill="none" stroke="#000" points="528.476 -108.282 528.476 -154.282 632.476 -154.282 632.476 -108.282 528.476 -108.282"/><text x="580.476" y="-139.082" font-family="Times,serif" font-size="14" text-anchor="middle">29</text><polyline fill="none" stroke="#000" points="528.476 -131.282 632.476 -131.282"/><text x="580.476" y="-116.082" font-family="Times,serif" font-size="14" text-anchor="middle">Vishwavidalaya</text></g><g id="node31" class="node"><title>node30</title><polygon fill="none" stroke="#000" points="919.976 -240.282 919.976 -286.282 1012.98 -286.282 1012.98 -240.282 919.976 -240.282"/><text x="966.476" y="-271.082" font-family="Times,serif" font-size="14" text-anchor="middle">30</text><polyline fill="none" stroke="#000" points="919.976 -263.282 1012.98 -263.282"/><text x="966.476" y="-248.082" font-family="Times,serif" font-size="14" text-anchor="middle">Vidhan Sabha</text></g><g id="node32" class="node"><title>node31</title><polygon fill="none" stroke="#000" points="823.976 -280.282 823.976 -326.282 900.976 -326.282 900.976 -280.282 823.976 -280.282"/><text x="862.476" y="-311.082" font-family="Times,serif" font-size="14" text-anchor="middle">31</text><polyline fill="none" stroke="#000" points="823.976 -303.282 900.976 -303.282"/><text x="862.476" y="-288.082" font-family="Times,serif" font-size="14" text-anchor="middle">Civil Lines</text></g><g id="node33" class="node"><title>node32</title><polygon fill="none" stroke="#000" points="879.976 -72.282 879.976 -118.282 984.976 -118.282 984.976 -72.282 879.976 -72.282"/><text x="932.476" y="-103.082" font-family="Times,serif" font-size="14" text-anchor="middle">32</text><polyline fill="none" stroke="#000" points="879.976 -95.282 984.976 -95.282"/><text x="932.476" y="-80.082" font-family="Times,serif" font-size="14" text-anchor="middle">Chandni Chowk</text></g><g id="node34" class="node"><title>node33</title><polygon fill="none" stroke="#000" points="728.476 -48.282 728.476 -94.282 820.476 -94.282 820.476 -48.282 728.476 -48.282"/><text x="774.476" y="-79.082" font-family="Times,serif" font-size="14" text-anchor="middle">33</text><polyline fill="none" stroke="#000" points="728.476 -71.282 820.476 -71.282"/><text x="774.476" y="-56.082" font-family="Times,serif" font-size="14" text-anchor="middle">Chawri Bazar</text></g><g id="node35" class="node"><title>node34</title><polygon fill="none" stroke="#000" points="944.476 -8.282 944.476 -54.282 1020.48 -54.282 1020.48 -8.282 944.476 -8.282"/><text x="982.476" y="-39.082" font-family="Times,serif" font-size="14" text-anchor="middle">34</text><polyline fill="none" stroke="#000" points="944.476 -31.282 1020.48 -31.282"/><text x="982.476" y="-16.082" font-family="Times,serif" font-size="14" text-anchor="middle">New Delhi</text></g><g id="node36" class="node"><title>node35</title><polygon fill="none" stroke="#000" points="840.476 -8.282 840.476 -54.282 926.476 -54.282 926.476 -8.282 840.476 -8.282"/><text x="883.476" y="-39.082" font-family="Times,serif" font-size="14" text-anchor="middle">35</text><polyline fill="none" stroke="#000" points="840.476 -31.282 926.476 -31.282"/><text x="883.476" y="-16.082" font-family="Times,serif" font-size="14" text-anchor="middle">Patel Chowk</text></g><g id="node37" class="node"><title>node36</title><polygon fill="none" stroke="#000" points="856.476 -176.282 856.476 -222.282 974.476 -222.282 974.476 -176.282 856.476 -176.282"/><text x="915.476" y="-207.082" font-family="Times,serif" font-size="14" text-anchor="middle">36</text><polyline fill="none" stroke="#000" points="856.476 -199.282 974.476 -199.282"/><text x="915.476" y="-184.082" font-family="Times,serif" font-size="14" text-anchor="middle">Central Secartarait</text></g><g id="node38" class="node"><title>node37</title><polygon fill="none" stroke="#000" points="735.976 -216.282 735.976 -262.282 836.976 -262.282 836.976 -216.282 735.976 -216.282"/><text x="786.476" y="-247.082" font-family="Times,serif" font-size="14" text-anchor="middle">37</text><polyline fill="none" stroke="#000" points="735.976 -239.282 836.976 -239.282"/><text x="786.476" y="-224.082" font-family="Times,serif" font-size="14" text-anchor="middle">Udyog Bhawan</text></g><g id="node39" class="node"><title>node38</title><polygon fill="none" stroke="#000" points="751.976 -112.282 751.976 -158.282 866.976 -158.282 866.976 -112.282 751.976 -112.282"/><text x="809.476" y="-143.082" font-family="Times,serif" font-size="14" text-anchor="middle">38</text><polyline fill="none" stroke="#000" points="751.976 -135.282 866.976 -135.282"/><text x="809.476" y="-120.082" font-family="Times,serif" font-size="14" text-anchor="middle">Lok Kalyan Marg</text></g><g id="node40" class="node"><title>node39</title><polygon fill="none" stroke="#000" points="743.976 -280.282 743.976 -326.282 808.976 -326.282 808.976 -280.282 743.976 -280.282"/><text x="776.476" y="-311.082" font-family="Times,serif" font-size="14" text-anchor="middle">39</text><polyline fill="none" stroke="#000" points="743.976 -303.282 808.976 -303.282"/><text x="776.476" y="-288.082" font-family="Times,serif" font-size="14" text-anchor="middle">Jor Bagh</text></g><g id="node41" class="node"><title>node40</title><polygon fill="none" stroke="#000" points="77.976 -490.282 77.976 -536.282 139.976 -536.282 139.976 -490.282 77.976 -490.282"/><text x="108.976" y="-521.082" font-family="Times,serif" font-size="14" text-anchor="middle">40</text><polyline fill="none" stroke="#000" points="77.976 -513.282 139.976 -513.282"/><text x="108.976" y="-498.082" font-family="Times,serif" font-size="14" text-anchor="middle">Lal Qila</text></g><g id="node42" class="node"><title>node41</title><polygon fill="none" stroke="#000" points="35.476 -266.282 35.476 -312.282 122.476 -312.282 122.476 -266.282 35.476 -266.282"/><text x="78.976" y="-297.082" font-family="Times,serif" font-size="14" text-anchor="middle">41</text><polyline fill="none" stroke="#000" points="35.476 -289.282 122.476 -289.282"/><text x="78.976" y="-274.082" font-family="Times,serif" font-size="14" text-anchor="middle">Jama Masjid</text></g><g id="node43" class="node"><title>node42</title><polygon fill="none" stroke="#000" points="133.976 -224.282 133.976 -270.282 209.976 -270.282 209.976 -224.282 133.976 -224.282"/><text x="171.976" y="-255.082" font-family="Times,serif" font-size="14" text-anchor="middle">42</text><polyline fill="none" stroke="#000" points="133.976 -247.282 209.976 -247.282"/><text x="171.976" y="-232.082" font-family="Times,serif" font-size="14" text-anchor="middle">Delhi Gate</text></g><g id="node44" class="node"><title>node43</title><polygon fill="none" stroke="#000" points="7.976 -490.282 7.976 -536.282 61.976 -536.282 61.976 -490.282 7.976 -490.282"/><text x="34.976" y="-521.082" font-family="Times,serif" font-size="14" text-anchor="middle">43</text><polyline fill="none" stroke="#000" points="7.976 -513.282 61.976 -513.282"/><text x="34.976" y="-498.082" font-family="Times,serif" font-size="14" text-anchor="middle">ITO</text></g><g id="node45" class="node"><title>node44</title><polygon fill="none" stroke="#000" points="154.976 -490.282 154.976 -536.282 212.976 -536.282 212.976 -490.282 154.976 -490.282"/><text x="183.976" y="-521.082" font-family="Times,serif" font-size="14" text-anchor="middle">44</text><polyline fill="none" stroke="#000" points="154.976 -513.282 212.976 -513.282"/><text x="183.976" y="-498.082" font-family="Times,serif" font-size="14" text-anchor="middle">Janpath</text></g><g id="node46" class="node"><title>node45</title><polygon fill="none" stroke="#000" points="56.476 -427.282 56.476 -473.282 145.476 -473.282 145.476 -427.282 56.476 -427.282"/><text x="100.976" y="-458.082" font-family="Times,serif" font-size="14" text-anchor="middle">45</text><polyline fill="none" stroke="#000" points="56.476 -450.282 145.476 -450.282"/><text x="100.976" y="-435.082" font-family="Times,serif" font-size="14" text-anchor="middle">Khan Market</text></g><g id="node47" class="node"><title>node46</title><polygon fill="none" stroke="#000" points="63.476 -329.282 63.476 -375.282 180.476 -375.282 180.476 -329.282 63.476 -329.282"/><text x="121.976" y="-360.082" font-family="Times,serif" font-size="14" text-anchor="middle">46</text><polyline fill="none" stroke="#000" points="63.476 -352.282 180.476 -352.282"/><text x="121.976" y="-337.082" font-family="Times,serif" font-size="14" text-anchor="middle">JL Nehru Stadium</text></g><g id="node48" class="node"><title>node47</title><polygon fill="none" stroke="#000" points="224.476 -224.282 224.476 -270.282 289.476 -270.282 289.476 -224.282 224.476 -224.282"/><text x="256.976" y="-255.082" font-family="Times,serif" font-size="14" text-anchor="middle">47</text><polyline fill="none" stroke="#000" points="224.476 -247.282 289.476 -247.282"/><text x="256.976" y="-232.082" font-family="Times,serif" font-size="14" text-anchor="middle">Jangpura</text></g><g id="node49" class="node"><title>node48</title><polygon fill="none" stroke="#000" points="161.476 -392.282 161.476 -438.282 262.476 -438.282 262.476 -392.282 161.476 -392.282"/><text x="211.976" y="-423.082" font-family="Times,serif" font-size="14" text-anchor="middle">48</text><polyline fill="none" stroke="#000" points="161.476 -415.282 262.476 -415.282"/><text x="211.976" y="-400.082" font-family="Times,serif" font-size="14" text-anchor="middle">Rajouri Garden</text></g><g id="node50" class="node"><title>node49</title><polygon fill="none" stroke="#000" points="196.976 -287.282 196.976 -333.282 294.976 -333.282 294.976 -287.282 196.976 -287.282"/><text x="245.976" y="-318.082" font-family="Times,serif" font-size="14" text-anchor="middle">49</text><polyline fill="none" stroke="#000" points="196.976 -310.282 294.976 -310.282"/><text x="245.976" y="-295.082" font-family="Times,serif" font-size="14" text-anchor="middle">Ramesh Nagar</text></g><g id="node51" class="node"><title>node50</title><polygon fill="none" stroke="#000" points="224.976 -455.282 224.976 -501.282 304.976 -501.282 304.976 -455.282 224.976 -455.282"/><text x="264.976" y="-486.082" font-family="Times,serif" font-size="14" text-anchor="middle">50</text><polyline fill="none" stroke="#000" points="224.976 -478.282 304.976 -478.282"/><text x="264.976" y="-463.082" font-family="Times,serif" font-size="14" text-anchor="middle">Moti Nagar</text></g></g></svg>